<svg width="20" height="22" viewBox="0 0 20 22" fill="none" xmlns="http://www.w3.org/2000/svg">
<path fill-rule="evenodd" clip-rule="evenodd" d="M14.0139 20.5H5.66604C2.59968 20.5 0.247274 19.3924 0.915466 14.9348L1.6935 8.89357C2.1054 6.66931 3.52416 5.81805 4.76901 5.81805H14.9475C16.2107 5.81805 17.547 6.73339 18.023 8.89357L18.8011 14.9348C19.3686 18.889 17.0802 20.5 14.0139 20.5Z" stroke="#383838" stroke-width="1.5" stroke-linecap="round" stroke-linejoin="round"/>
<path d="M14.1512 5.59839C14.1512 3.21232 12.2169 1.27802 9.83086 1.27802V1.27802C8.68186 1.27315 7.57825 1.72618 6.76406 2.53694C5.94987 3.34769 5.49218 4.44938 5.49219 5.59839H5.49219" stroke="#383838" stroke-width="1.5" stroke-linecap="round" stroke-linejoin="round"/>
<path d="M12.7965 10.1018H12.7507" stroke="#383838" stroke-width="1.5" stroke-linecap="round" stroke-linejoin="round"/>
<path d="M6.9659 10.1018H6.92013" stroke="#383838" stroke-width="1.5" stroke-linecap="round" stroke-linejoin="round"/>
</svg>
