<svg width="44" height="41" viewBox="0 0 44 41" fill="none" xmlns="http://www.w3.org/2000/svg">
    <path 
        fill-rule="evenodd" 
        clip-rule="evenodd" 
        d="M30.2753 36.7292H14.971C9.34933 36.7292 5.03659 34.8371 
            6.26161 27.2219L7.688 16.9016C8.44315 13.1018 11.0442 11.6476 
            13.3264 11.6476H31.987C34.3028 11.6476 36.7528 13.2112 
            37.6255 16.9016L39.0518 27.2219C40.0923 33.9771 35.897 36.7292 
            30.2753 36.7292Z" 
        stroke="#383838" 
        stroke-width="4" 
        stroke-linecap="round" 
        stroke-linejoin="round"
    />
    <path 
        d="M30.5272 11.2723C30.5272 7.19606 26.981 3.89164 
            22.6066 3.89164V3.89164C20.5001 3.88332 18.4768 4.65725 
            16.9841 6.04228C15.4914 7.42732 14.6523 9.30937 
            14.6523 11.2723H14.6523" 
        stroke="#383838" 
        stroke-width="4" 
        stroke-linecap="round" 
        stroke-linejoin="round"
    />
    <path 
        d="M28.0434 18.9656H27.9595" 
        stroke="#383838" 
        stroke-width="4" 
        stroke-linecap="round" 
        stroke-linejoin="round"
    />
    <path 
        d="M17.3539 18.9656H17.27" 
        stroke="#383838" 
        stroke-width="4" 
        stroke-linecap="round" 
        stroke-linejoin="round"
    />
</svg>
