<svg width="31" height="30" viewBox="0 0 31 30" fill="none" xmlns="http://www.w3.org/2000/svg">
<g clip-path="url(#clip0_202_454)">
<path d="M15.5 0C23.7843 0 30.5 6.71572 30.5 15C30.5 22.4869 25.0147 28.6925 17.8438 29.8178V19.3359H21.3389L22.0039 15H17.8438V12.1862C17.8438 11.8677 17.8856 11.5514 17.983 11.259C18.2029 10.5985 18.7059 10.0604 19.6482 9.89575C19.8424 9.86182 20.0553 9.84375 20.2882 9.84375H22.1797V6.15234C22.1797 6.15234 20.4631 5.85938 18.822 5.85938C15.3956 5.85938 13.1562 7.93594 13.1562 11.6953V15H9.34766V19.3359H13.1562V29.8178C5.98531 28.6925 0.5 22.4869 0.5 15C0.5 6.71572 7.21572 0 15.5 0Z" fill="#A3E684"/>
</g>
<defs>
<clipPath id="clip0_202_454">
<rect width="30" height="30" fill="white" transform="translate(0.5)"/>
</clipPath>
</defs>
</svg>
