<svg width="31" height="30" viewBox="0 0 31 30" fill="none" xmlns="http://www.w3.org/2000/svg">
<g clip-path="url(#clip0_202_457)">
<path d="M12.1667 15C12.1667 16.8409 13.6591 18.3333 15.5 18.3333C17.3409 18.3333 18.8333 16.8409 18.8333 15C18.8333 13.159 17.3409 11.6666 15.5 11.6666C13.6591 11.6666 12.1667 13.159 12.1667 15Z" fill="#A3E684"/>
<path fill-rule="evenodd" clip-rule="evenodd" d="M19.5408 6.86011C18.4863 6.81199 18.1701 6.80183 15.5 6.80183C12.8299 6.80183 12.5136 6.81199 11.4591 6.86011C10.4841 6.90461 9.95464 7.0675 9.60226 7.20441C9.1355 7.38582 8.80238 7.60253 8.45242 7.95246C8.1025 8.30238 7.88578 8.63554 7.70441 9.10226C7.56746 9.45464 7.40457 9.98413 7.36007 10.9591C7.31195 12.0136 7.30179 12.3299 7.30179 15C7.30179 17.6701 7.31195 17.9863 7.36007 19.0408C7.40457 20.0158 7.56746 20.5452 7.70441 20.8976C7.88578 21.3644 8.1025 21.6975 8.45242 22.0474C8.80238 22.3974 9.1355 22.6141 9.60226 22.7955C9.95464 22.9324 10.4841 23.0953 11.4591 23.1398C12.5135 23.1879 12.8296 23.1981 15.5 23.1981C18.1702 23.1981 18.4865 23.1879 19.5408 23.1398C20.5158 23.0953 21.0452 22.9324 21.3976 22.7955C21.8644 22.6141 22.1975 22.3974 22.5474 22.0474C22.8974 21.6975 23.1141 21.3644 23.2955 20.8976C23.4324 20.5452 23.5953 20.0158 23.6398 19.0408C23.6879 17.9863 23.6981 17.6701 23.6981 15C23.6981 12.3299 23.6879 12.0136 23.6398 10.9591C23.5953 9.98413 23.4324 9.45464 23.2955 9.10226C23.1141 8.63554 22.8974 8.30238 22.5474 7.95246C22.1975 7.60253 21.8644 7.38582 21.3976 7.20441C21.0452 7.0675 20.5158 6.90461 19.5408 6.86011ZM10.3649 15C10.3649 12.1639 12.664 9.86484 15.5 9.86484C18.3361 9.86484 20.6351 12.1639 20.6351 15C20.6351 17.836 18.3361 20.135 15.5 20.135C12.664 20.135 10.3649 17.836 10.3649 15ZM22.0379 9.66194C22.0379 10.3247 21.5007 10.8619 20.8379 10.8619C20.1752 10.8619 19.638 10.3247 19.638 9.66194C19.638 8.99921 20.1752 8.46198 20.8379 8.46198C21.5007 8.46198 22.0379 8.99921 22.0379 9.66194Z" fill="#A3E684"/>
<path fill-rule="evenodd" clip-rule="evenodd" d="M30.5 15C30.5 23.2843 23.7843 30 15.5 30C7.21573 30 0.5 23.2843 0.5 15C0.5 6.71573 7.21573 0 15.5 0C23.7843 0 30.5 6.71573 30.5 15ZM11.377 5.0602C12.4436 5.01152 12.7841 5 15.5 5C18.2158 5 18.5563 5.01152 19.6229 5.0602C20.6873 5.10875 21.4142 5.27777 22.0503 5.525C22.7079 5.78055 23.2656 6.1225 23.8215 6.67843C24.3774 7.23433 24.7194 7.79203 24.9749 8.4496C25.2221 9.08566 25.3912 9.81261 25.4397 10.877C25.4884 11.9436 25.4999 12.2841 25.4999 15C25.4999 17.7158 25.4884 18.0563 25.4397 19.1229C25.3912 20.1873 25.2221 20.9142 24.9749 21.5503C24.7194 22.2079 24.3774 22.7656 23.8215 23.3215C23.2656 23.8774 22.7079 24.2194 22.0503 24.4749C21.4142 24.7221 20.6873 24.8912 19.6229 24.9397C18.5563 24.9884 18.2158 24.9999 15.5 24.9999C12.7841 24.9999 12.4436 24.9884 11.377 24.9397C10.3126 24.8912 9.58566 24.7221 8.94956 24.4749C8.29199 24.2194 7.73429 23.8774 7.1784 23.3215C6.62246 22.7656 6.28051 22.2079 6.02496 21.5503C5.77773 20.9142 5.60871 20.1873 5.56016 19.1229C5.51148 18.0563 5.5 17.7158 5.5 15C5.5 12.2841 5.51148 11.9436 5.56016 10.877C5.60871 9.81261 5.77773 9.08566 6.02496 8.4496C6.28051 7.79203 6.62246 7.23433 7.1784 6.67843C7.73429 6.1225 8.29199 5.78055 8.94956 5.525C9.58566 5.27777 10.3126 5.10875 11.377 5.0602Z" fill="#A3E684"/>
</g>
<defs>
<clipPath id="clip0_202_457">
<rect width="30" height="30" fill="white" transform="translate(0.5)"/>
</clipPath>
</defs>
</svg>
