<svg width="31" height="30" viewBox="0 0 31 30" fill="none" xmlns="http://www.w3.org/2000/svg">
<g clip-path="url(#clip0_202_455)">
<path d="M15.4999 0C7.21566 0 0.5 6.71584 0.5 14.9999C0.5 21.3547 4.45361 26.7872 10.0336 28.9728C9.90236 27.786 9.78395 25.9608 10.0857 24.6651C10.3582 23.4945 11.8446 17.2092 11.8446 17.2092C11.8446 17.2092 11.3958 16.3107 11.3958 14.9821C11.3958 12.8964 12.6047 11.3393 14.11 11.3393C15.3897 11.3393 16.0079 12.3002 16.0079 13.4522C16.0079 14.7393 15.1886 16.6634 14.7656 18.4465C14.4123 19.9396 15.5144 21.1571 16.9868 21.1571C19.653 21.1571 21.7023 18.346 21.7023 14.2882C21.7023 10.6968 19.1215 8.18572 15.4367 8.18572C11.1687 8.18572 8.66346 11.3869 8.66346 14.6952C8.66346 15.9845 9.16004 17.3668 9.77979 18.1183C9.90225 18.2668 9.92029 18.3971 9.88385 18.5486C9.76988 19.0224 9.51693 20.0412 9.46719 20.2496C9.40174 20.5242 9.24975 20.5825 8.96557 20.4503C7.09209 19.5782 5.92086 16.8393 5.92086 14.6393C5.92086 9.90756 9.35867 5.56225 15.8319 5.56225C21.0354 5.56225 25.0792 9.27 25.0792 14.2253C25.0792 19.395 21.8197 23.5553 17.2955 23.5553C15.7756 23.5553 14.3466 22.7657 13.8576 21.833C13.8576 21.833 13.1053 24.697 12.923 25.3988C12.5842 26.7018 11.6701 28.3349 11.0587 29.331C12.4623 29.7656 13.9537 29.9999 15.4999 29.9999C23.7844 29.9999 30.5001 23.2844 30.5001 14.9999C30.5001 6.71584 23.7844 0 15.4999 0Z" fill="#A3E684"/>
</g>
<defs>
<clipPath id="clip0_202_455">
<rect width="30" height="30" fill="white" transform="translate(0.5)"/>
</clipPath>
</defs>
</svg>
