<svg width="31" height="30" viewBox="0 0 31 30" fill="none" xmlns="http://www.w3.org/2000/svg">
    <g clip-path="url(#clip0_202_458)">
        <path 
            fill-rule="evenodd" 
            clip-rule="evenodd" 
            d="M30.5 15C30.5 23.2843 23.7843 30 
                15.5 30C7.21573 30 0.5 23.2843 
                0.5 15C0.5 6.71573 7.21573 0 
                15.5 0C23.7843 0 30.5 6.71573 
                30.5 15ZM16.0377 
                11.0737C14.5787 11.6805 11.6628 12.9365 
                7.29002 14.8417C6.57994 15.124 6.20797 15.4003 
                6.17411 15.6704C6.11688 16.1269 6.68854 16.3066 
                7.46699 16.5514C7.57288 16.5847 7.68259 16.6192 
                7.79507 16.6558C8.56095 16.9047 9.59119 17.196 
                10.1268 17.2075C10.6126 17.218 11.1548 17.0177 
                11.7535 16.6067C15.8391 13.8488 17.9481 12.4548 
                18.0805 12.4247C18.174 12.4035 18.3034 12.3769 
                18.3911 12.4548C18.4788 12.5328 18.4702 12.6804 
                18.4609 12.72C18.4043 12.9614 16.1603 15.0476 
                14.9991 16.1272C14.637 16.4638 14.3802 16.7025 
                14.3278 16.757C14.2102 16.8792 14.0903 16.9947 
                13.9751 17.1058C13.2636 17.7917 12.73 18.306 
                14.0047 19.146C14.6172 19.5496 15.1074 19.8834 
                15.5963 20.2164C16.1304 20.5801 16.663 20.9428 
                17.3522 21.3946C17.5278 21.5097 17.6954 21.6292 
                17.8588 21.7457C18.4802 22.1887 19.0386 22.5868 
                19.7284 22.5233C20.1292 22.4864 20.5432 22.1095 
                20.7535 20.9854C21.2504 18.3289 22.2272 12.5731 
                22.4529 10.2012C22.4727 9.99341 22.4478 9.72746 
                22.4278 9.61072C22.4079 9.49397 22.3661 9.32763 
                22.2144 9.2045C22.0346 9.05867 21.7572 9.02792 
                21.6331 9.0301C21.0689 9.04004 20.2033 9.34102 
                16.0377 11.0737Z" 
            fill="#A3E684"/>
    </g>
    <defs>
        <clipPath id="clip0_202_458">
            <rect 
                width="30" 
                height="30" 
                fill="white" 
                transform="translate(0.5)"
            /> 
        </clipPath>
    </defs>
</svg>
