<svg xmlns="http://www.w3.org/2000/svg" width="31" height="30" fill="none" viewBox="0 0 31 30"><path fill="#A3E684" fill-rule="evenodd" d="M30.5 15C30.5 23.2843 23.7843 30 15.5 30C7.21573 30 0.5 23.2843 0.5 15C0.5 6.71573 7.21573 0 15.5 0C23.7843 0 30.5 6.71573 30.5 15ZM23.5727 12.3871C23.5727 17.5815 19.6178 23.575 12.3848 23.575C10.1668 23.575 8.09553 22.9226 6.37494 21.7973C6.68481 21.8381 6.99468 21.8544 7.3127 21.8544C9.15561 21.8544 10.8517 21.2265 12.1972 20.1746C10.4766 20.142 9.02514 19.0085 8.52771 17.4429C8.77235 17.4918 9.01698 17.5162 9.26977 17.5162C9.62856 17.5162 9.97921 17.4673 10.3054 17.3776C8.50325 17.0107 7.14961 15.4287 7.14961 13.5206V13.4716C7.67965 13.7652 8.28308 13.9446 8.92728 13.9609C7.8672 13.2596 7.17408 12.0528 7.17408 10.691C7.17408 9.97338 7.36978 9.29656 7.70411 8.71759C9.64487 11.0987 12.5397 12.6643 15.8096 12.8274C15.7362 12.542 15.7036 12.2403 15.7036 11.9304C15.7036 9.76136 17.465 8 19.6341 8C20.7675 8 21.7868 8.47296 22.5044 9.23948C23.4014 9.06008 24.2413 8.7339 24.9997 8.28541C24.7061 9.20686 24.0864 9.97338 23.271 10.4626C24.0701 10.3648 24.8285 10.1528 25.5297 9.84291C24.9997 10.6339 24.331 11.327 23.5645 11.8815C23.5727 12.0446 23.5727 12.2159 23.5727 12.3871Z" clip-rule="evenodd"/></svg>